Land_normalized_Motion_pl03
version=1
nRows=25
nColumns=43
inDegrees=yes
endheader
time		pelvis_tilt		pelvis_list		pelvis_rotation		pelvis_tx		pelvis_ty		pelvis_tz		hip_flexion_r		hip_adduction_r		hip_rotation_r		knee_angle_r		ankle_angle_r		subtalar_angle_r		mtp_angle_r		hip_flexion_l		hip_adduction_l		hip_rotation_l		knee_angle_l		ankle_angle_l		subtalar_angle_l		mtp_angle_l		lumbar_extension		lumbar_bending		lumbar_rotation		neck_flexion		neck_lateral_bending		neck_rotation		arm_flex_r		arm_add_r		arm_rot_r		elbow_flex_r		pro_sup_r		wrist_flex_r		wrist_dev_r		hand_finger_flex_r		arm_flex_l		arm_add_l		arm_rot_l		elbow_flex_l		pro_sup_l		wrist_flex_l		wrist_dev_l		hand_finger_flex_l		
3.081313		4.457978		-1.407580		93.914354		-0.024191		0.661496		0.515912		59.148941		-3.647660		-8.179731		-80.046246		5.132754		-3.127634		30.373463		61.769944		-8.720221		-1.604474		-85.869345		22.043653		1.760791		23.443872		-31.151743		3.500549		1.694018		-5.125285		1.647145		-2.220206		-23.830034		-17.252314		-13.043089		40.613562		118.942958		-20.041595		-12.506253		-32.302678		-35.872604		-24.558099		-19.926695		66.608222		139.288407		-29.779457		-14.869809		-17.897390		
3.084066		4.449087		-1.693063		93.857730		-0.023458		0.652002		0.515097		60.613880		-3.401942		-7.796794		-81.827155		5.172534		-4.150619		30.447864		63.605550		-8.565537		-1.068279		-88.213408		21.872145		1.560776		23.001853		-31.411238		3.331904		1.880201		-4.365980		1.866367		-2.304379		-22.107368		-17.234177		-13.013562		40.711014		119.013816		-20.347549		-12.697013		-32.268454		-33.593392		-24.876318		-19.508409		66.821364		139.673077		-30.364299		-15.038453		-17.689876		
3.086818		4.440986		-1.830904		93.823255		-0.022399		0.643154		0.514311		61.923068		-3.128172		-7.404797		-83.647120		5.209740		-4.969835		30.516938		65.177009		-8.491039		-0.651650		-90.364812		21.632586		1.460747		22.715236		-31.929929		3.122361		2.145474		-3.280074		2.109015		-2.366263		-20.333465		-17.173725		-12.986787		40.793487		119.122710		-20.514178		-12.863785		-32.199115		-31.128914		-25.283842		-19.037775		67.024819		140.008427		-30.760639		-15.179937		-17.490534		
3.089571		4.395647		-1.917256		93.712009		-0.021662		0.634553		0.513496		63.175342		-2.879090		-6.914322		-85.508616		4.906247		-5.680530		30.599653		66.661375		-8.379867		-0.245294		-92.470747		21.392511		1.303788		22.436788		-32.467983		2.906085		2.468819		-2.234487		2.354758		-2.541357		-18.601796		-17.110922		-13.088841		40.970913		119.243845		-20.753184		-13.111483		-32.130102		-28.641177		-25.618362		-18.494946		67.270968		140.365318		-31.253763		-15.333454		-17.273679		
3.092323		4.346432		-1.618730		93.621697		-0.021136		0.626795		0.512471		63.976095		-2.700882		-6.521760		-87.396025		4.566323		-5.784621		30.623888		67.620506		-8.243823		0.168701		-94.502728		21.532511		1.179575		22.392516		-33.324808		2.745295		2.420089		-2.061587		2.408011		-2.569984		-16.753642		-17.142185		-13.070370		41.463724		119.301781		-20.797251		-13.271498		-32.097428		-26.562922		-25.764507		-18.307360		67.816541		140.459709		-31.394481		-15.420853		-17.224631		
3.095076		4.233495		-1.640118		93.399885		-0.020409		0.619019		0.511704		65.178150		-2.395691		-5.861705		-89.245376		4.063859		-6.337771		30.702143		68.819027		-8.174923		0.397994		-96.317371		21.107549		0.938722		22.210339		-34.098780		2.376643		2.976738		-0.227772		2.808666		-2.838073		-14.984944		-17.153002		-13.189645		41.578117		119.427796		-21.010045		-13.552581		-32.032311		-23.772336		-26.173750		-17.518516		68.064988		140.846271		-31.758641		-15.622149		-17.031626		
3.097828		4.126502		-1.285622		93.244243		-0.019875		0.611785		0.510659		65.965742		-2.194339		-5.354572		-91.142295		3.660184		-6.393415		30.739533		69.583149		-8.001155		0.740081		-98.168665		21.191568		0.708379		22.166887		-35.057818		2.107224		3.022549		0.086187		2.886156		-3.024968		-13.181151		-17.158680		-13.253506		42.162575		119.472741		-21.139861		-13.803494		-32.011586		-21.621433		-26.339465		-17.183226		68.670694		140.979682		-31.994139		-15.727582		-16.964268		
3.100581		3.666643		-1.047263		92.837945		-0.019092		0.604912		0.509862		66.943600		-1.917578		-4.320568		-92.998850		3.012503		-6.890120		30.902619		70.248131		-7.861687		0.589791		-99.762996		20.717408		0.014284		21.886903		-36.151552		1.312576		3.733122		1.873341		3.294308		-4.017876		-11.716635		-16.993954		-13.837932		42.686368		119.515937		-21.802422		-14.488557		-31.973968		-18.614839		-26.942368		-15.837865		68.975528		141.540044		-32.944116		-15.894345		-16.581332		
3.103333		3.608932		-0.716671		92.713820		-0.018838		0.598138		0.508744		67.764791		-1.718943		-3.870426		-94.821823		2.934638		-6.823917		30.929103		70.922476		-7.690506		0.936422		-101.416724		20.847597		-0.112821		21.873802		-37.095587		1.119361		3.744784		2.337464		3.320526		-4.017810		-9.726191		-17.147864		-13.663279		43.070170		119.565681		-21.724805		-14.605027		-31.900888		-16.398427		-27.012298		-15.537212		69.531341		141.595986		-33.011009		-15.922591		-16.492149		
3.106086		3.488151		-0.417792		92.559546		-0.018494		0.591684		0.507587		68.627684		-1.479175		-3.337364		-96.591621		2.985591		-6.734955		30.967790		71.549811		-7.480728		1.236332		-102.954264		20.857115		-0.250406		21.836185		-38.054320		0.822625		3.832073		3.263414		3.451453		-4.091696		-7.743932		-17.333076		-13.408359		43.374494		119.630535		-21.665438		-14.747712		-31.820336		-14.014131		-27.170020		-15.009946		70.044242		141.714161		-33.111324		-15.970145		-16.351695		
3.108838		3.312934		-0.061080		92.451823		-0.018077		0.585434		0.506359		69.445691		-1.290475		-2.813102		-98.363957		3.199950		-6.522632		31.001160		72.086421		-7.245241		1.494359		-104.448274		20.824886		-0.347077		21.803608		-39.060943		0.484505		3.814587		4.188988		3.662808		-4.279960		-5.812053		-17.485103		-13.078488		43.829964		119.694387		-21.710794		-14.941207		-31.798397		-11.710516		-27.442815		-14.447250		70.627627		141.844666		-33.285230		-16.048801		-16.243365		
3.111591		2.663569		0.561069		92.352790		-0.017954		0.580196		0.505339		70.018933		-1.354432		-1.919849		-100.135354		3.870995		-5.446347		31.120225		72.076298		-6.867422		1.123080		-105.676411		20.643221		-0.510639		21.662620		-40.540769		-0.289154		3.773803		5.819660		4.148754		-5.093320		-4.024341		-17.609271		-12.775475		44.442007		119.510551		-22.361665		-15.287279		-31.917397		-8.896338		-28.013536		-13.121969		71.013658		142.031335		-34.268183		-15.843335		-15.822364		
3.114343		2.359977		1.065006		92.318311		-0.017408		0.574406		0.504008		70.657569		-1.210873		-1.363470		-101.870193		4.145269		-4.860754		31.183766		72.333407		-6.624837		1.196891		-107.017713		20.727367		-0.641259		21.605899		-41.645721		-0.721665		3.611070		6.377688		4.254131		-5.432711		-2.198288		-17.606320		-12.530998		45.113576		119.417614		-22.652685		-15.527015		-31.955676		-6.555921		-28.264691		-12.531702		71.589721		142.089778		-34.828458		-15.735446		-15.594745		
3.117096		2.283105		1.357009		92.267224		-0.017241		0.568655		0.502653		71.497850		-0.999881		-0.951600		-103.484119		4.665087		-4.623782		31.213165		72.798299		-6.408630		1.565969		-108.282449		20.824215		-0.505320		21.599776		-42.502872		-0.879822		3.476102		7.140021		4.254739		-5.364336		-0.079349		-17.911360		-11.836871		45.438782		119.515907		-22.429552		-15.656016		-31.832629		-4.259330		-28.475276		-11.914908		72.037233		142.170848		-34.944851		-15.738785		-15.396904		
3.119848		1.901525		1.988917		92.456921		-0.017427		0.563819		0.501554		71.940774		-1.197799		-0.505565		-105.093320		5.457769		-3.038771		31.318431		72.773108		-6.051533		1.511422		-109.380130		21.065752		0.215050		21.561959		-43.848906		-1.190696		3.060937		8.143378		4.649125		-5.722600		1.884207		-18.210591		-10.945959		46.120232		119.305594		-22.757123		-15.835622		-31.843695		-1.684255		-28.921095		-10.725811		72.385986		142.089866		-36.263745		-15.295707		-14.787318		
3.122601		1.900518		2.287681		92.452155		-0.016728		0.557954		0.500077		72.700806		-0.946547		-0.249964		-106.647325		5.500023		-2.855369		31.333722		73.243082		-6.004787		1.906286		-110.648347		21.273939		0.234262		21.575682		-44.579946		-1.308965		2.828248		8.319367		4.565470		-5.675585		3.842100		-18.203502		-10.547313		46.779192		119.368069		-22.666209		-16.008475		-31.786219		0.387159		-28.993030		-10.514102		73.001781		142.097678		-36.404401		-15.303837		-14.677406		
3.125354		1.852824		2.524774		92.521853		-0.016603		0.552790		0.498925		73.476670		-0.879129		0.023334		-108.049778		5.797637		-2.299878		31.368211		73.638225		-5.942011		2.108909		-111.662763		21.527826		0.752771		21.601065		-45.380044		-1.358137		2.633253		9.215176		4.565023		-5.564188		5.961557		-18.657656		-9.426012		47.222308		119.585828		-22.251077		-16.225972		-31.578343		2.892121		-29.320804		-9.498948		73.271616		142.140083		-36.659966		-15.178787		-14.305004		
3.128106		1.770099		2.837964		92.559077		-0.016607		0.547450		0.497737		74.179497		-0.864460		0.316748		-109.468521		5.966111		-1.588042		31.402087		73.969633		-5.808736		2.410229		-112.748983		21.908712		1.398828		21.649183		-46.179553		-1.425163		2.400614		9.727518		4.628065		-5.589956		7.955516		-18.978639		-8.694102		47.934167		119.721240		-21.988118		-16.401449		-31.443170		5.269544		-29.626553		-8.529098		73.560963		142.046092		-37.176708		-14.880349		-13.932742		
3.130859		1.648173		3.181703		92.674920		-0.016552		0.542321		0.496576		74.808562		-0.942080		0.587594		-110.840962		6.195572		-0.645687		31.454118		74.218086		-5.713051		2.578279		-113.800289		22.428733		2.337704		21.716623		-46.987320		-1.504267		2.185321		10.115017		4.719414		-5.732119		9.797345		-19.244101		-8.066975		48.816448		119.797146		-21.751904		-16.526423		-31.319495		7.841447		-29.975334		-7.161073		73.808186		141.795611		-38.170315		-14.294078		-13.329768		
3.133611		1.682387		3.287501		92.666848		-0.016071		0.536798		0.495420		75.654819		-0.795736		0.808124		-112.116359		5.982575		-0.367593		31.466596		74.792322		-5.783557		2.850874		-114.830293		22.656728		2.489206		21.747393		-47.492886		-1.524693		1.990078		10.553980		4.587775		-5.594368		11.805362		-19.481634		-7.308766		49.511857		120.064358		-21.332842		-16.777213		-31.151062		10.125716		-30.311438		-6.368496		74.131341		141.872868		-38.098893		-14.284149		-13.037652		
3.136364		1.669043		3.381488		92.730377		-0.015864		0.531330		0.494365		76.489187		-0.803257		1.040785		-113.350402		5.758714		0.075631		31.478264		75.364471		-5.770313		3.057124		-115.836385		22.921998		2.837892		21.794347		-47.959713		-1.526507		1.782070		10.890265		4.552344		-5.486572		13.735864		-19.807266		-6.533516		50.276008		120.357201		-20.877657		-17.023823		-30.981925		12.519466		-30.649872		-5.373243		74.423599		141.901426		-38.031367		-14.173771		-12.744738		
3.139116		1.639045		3.442250		92.812141		-0.015678		0.525911		0.493356		77.333838		-0.850433		1.277876		-114.535652		5.529685		0.586933		31.488565		75.954080		-5.720808		3.237432		-116.817999		23.199770		3.234098		21.850112		-48.361340		-1.524039		1.562461		11.158000		4.517028		-5.397726		15.641701		-20.098047		-5.822152		51.077689		120.628146		-20.446619		-17.241075		-30.837401		14.973108		-31.042441		-4.222913		74.666894		141.913327		-37.909662		-14.003123		-12.454580		
3.141869		1.593548		3.475063		92.904909		-0.015490		0.520517		0.492409		78.185296		-0.943736		1.510673		-115.674245		5.266341		1.116234		31.498131		76.576709		-5.662971		3.389820		-117.772914		23.457020		3.617570		21.910180		-48.706669		-1.527795		1.351695		11.378025		4.471572		-5.315957		17.508222		-20.384824		-5.142927		51.889516		120.880549		-20.055361		-17.444269		-30.720592		17.509760		-31.463728		-2.942996		74.869900		141.921744		-37.712060		-13.789692		-12.159584		
3.144621		1.315557		3.440181		93.182176		-0.015812		0.514977		0.491602		79.155624		-1.377727		1.949634		-116.857230		5.252716		1.868992		31.527120		77.248694		-5.306794		3.330673		-118.675593		23.743415		4.393028		22.049060		-48.920718		-1.652509		1.420603		11.142095		4.711593		-5.677232		18.830671		-20.935839		-4.988763		52.972004		120.968759		-19.860971		-17.462336		-30.803867		20.860189		-31.697411		-0.343156		74.742038		141.514153		-37.871400		-12.679495		-11.582452		
3.147374		1.328305		3.418573		93.167093		-0.015031		0.509832		0.490805		79.999673		-1.337027		2.057893		-117.852003		4.858927		2.286445		31.539334		77.921099		-5.454936		3.484627		-119.500705		23.906187		4.462226		22.107807		-49.241429		-1.712144		1.267139		11.514362		4.534211		-5.687944		20.744948		-21.087434		-4.428643		53.816941		121.149945		-19.603282		-17.681412		-30.758526		23.428387		-32.258464		0.958128		74.894686		141.637331		-37.645913		-12.593535		-11.264250		
